<?xml version="1.0" standalone="no"?>
<!DOCTYPE svg PUBLIC "-//W3C//DTD SVG 20010904//EN"
 "http://www.w3.org/TR/2001/REC-SVG-20010904/DTD/svg10.dtd">
<svg version="1.0" xmlns="http://www.w3.org/2000/svg"
 width="500.000000pt" height="500.000000pt" viewBox="0 0 500.000000 500.000000"
 preserveAspectRatio="xMidYMid meet">
<metadata>
Created by potrace 1.11, written by Peter Selinger 2001-2013
</metadata>
<g transform="translate(0.000000,500.000000) scale(0.100000,-0.100000)"
fill="#000000" stroke="none">
<path d="M2568 4239 c-15 -6 -278 -228 -585 -494 l-558 -484 -528 -1 c-422 0
-534 -3 -560 -14 -42 -17 -83 -66 -97 -114 -14 -53 -14 -1304 1 -1357 14 -50
64 -100 114 -114 27 -7 210 -11 547 -11 l507 0 561 -486 c309 -267 577 -492
595 -500 70 -29 152 -5 197 58 l23 33 0 1695 0 1695 -24 34 c-41 58 -126 84
-193 60z"/>
<path d="M4034 4216 c-72 -32 -112 -133 -81 -206 8 -19 45 -75 82 -125 238
-318 398 -716 457 -1135 19 -140 16 -496 -5 -640 -65 -426 -212 -776 -475
-1133 -54 -73 -66 -97 -69 -135 -11 -126 121 -219 234 -165 92 43 342 436 456
718 144 352 206 673 207 1055 0 348 -62 683 -186 998 -120 304 -374 715 -474
767 -36 19 -105 19 -146 1z"/>
<path d="M3605 3784 c-66 -34 -95 -82 -95 -157 0 -37 10 -60 71 -153 333 -509
404 -1087 203 -1659 -38 -109 -126 -280 -199 -389 -70 -104 -83 -143 -71 -211
9 -46 64 -101 115 -115 64 -17 123 3 172 59 99 112 251 403 319 609 207 632
116 1312 -249 1870 -69 105 -87 126 -123 142 -52 24 -103 25 -143 4z"/>
<path d="M3145 3315 c-50 -18 -91 -62 -105 -114 -14 -53 -7 -80 52 -182 100
-176 150 -362 151 -564 1 -235 -41 -382 -186 -640 -80 -143 71 -299 220 -228
87 41 220 321 275 577 29 135 31 406 5 541 -38 193 -129 423 -216 542 -50 69
-123 95 -196 68z"/>
</g>
</svg>
